<svg width="140" height="123" viewBox="0 0 140 123" fill="none" xmlns="http://www.w3.org/2000/svg">
<path d="M4.98682 22.4407H134.644C137.398 22.4407 139.631 20.2081 139.631 17.4539V4.98681C139.631 2.23253 137.398 0 134.644 0H4.98682C2.23253 0 0 2.23253 0 4.98681V17.4539C0 20.2081 2.23253 22.4407 4.98682 22.4407ZM4.98682 72.3088H134.644C137.398 72.3088 139.631 70.0763 139.631 67.322V54.855C139.631 52.1007 137.398 49.8681 134.644 49.8681H4.98682C2.23253 49.8681 0 52.1007 0 54.855V67.322C0 70.0763 2.23253 72.3088 4.98682 72.3088ZM4.98682 122.177H134.644C137.398 122.177 139.631 119.944 139.631 117.19V104.723C139.631 101.969 137.398 99.7363 134.644 99.7363H4.98682C2.23253 99.7363 0 101.969 0 104.723V117.19C0 119.944 2.23253 122.177 4.98682 122.177Z" fill="#121417"/>
</svg>
